{"title":"Eurovision.Song.Contest.2016.SF2.EBU-FEED.reenc.1080i.AC3-icecub","uid":14628612,"size":6019584209,"categoryP":"video","categoryS":"hd___tv_shows","magnet":"?xt=urn:btih:425a2978505db7f7f171cc9398e78a0c6570e035&amp;dn=Eurovision.Song.Contest.2016.SF2.EBU-FEED.reenc.1080i.AC3-icecub&amp;tr=udp%3A%2F%2Ftracker.leechers-paradise.org%3A6969&amp;tr=udp%3A%2F%2Fzer0day.ch%3A1337&amp;tr=udp%3A%2F%2Fopen.demonii.com%3A1337&amp;tr=udp%3A%2F%2Ftracker.coppersurfer.tk%3A6969&amp;tr=udp%3A%2F%2Fexodus.desync.com%3A6969","seeders":0,"leechers":1,"uploader":"iceqbeic","files":2,"time":1463338335,"description":"This is the 1080i re-encode of the original EBU feed transport stream posted. Size really doesn't matter! ;)\r\n\r\nOriginal feed ts posted by Anonymous as:  Eurovision Song Contest 2016: Stockholm (2nd SF) [FEED 1080i]\r\n\r\nWORDS OF CAUTION WHEN PLAYING BACK!\r\n\r\nMedia player tests/comparison. Original transport stream. Players used:\r\nVLC 2.2.1\r\nMS Media player Ver. 12.07601.19148\r\nMPC+HC Media Player Classic with CCCP:MPC 64-bit 1.7.8.162/CCCP Raise Your Flag 2015-10-18\r\n\r\nPlaying back the original feed transport stream:\r\nMS Media player: There's no image playing the original feed. There is sound, but no picture. File opens in a windows not corresponding with actual size.\r\nVLC: Severe colour, time jump and image/sound sync issues. Colours are bled out with usually red remaining to some extent. Colour comes and goes. Does not correct sync.\r\nMPC: Jump issues. Change slider and image is frozen for quite a while. No colour issues and possibly a 1/10 or 1/20 second image/sound sync issue at the end.\r\n\r\nPlaying back my 1080i re-encode:\r\nMPC: No colour issues. No discernible image/sound sync issues at the end.\r\nVLC: VLC: Colour issues, but lesser. No jump issues. No artifacts. No sync issues.\r\nMS Media player: Some severe jump issues with artifacts sometimes but this does not affect sound. Will right itself. \r\n\r\nMedia player MPC comparison original with re-encoded file. No difference in image or sound.\r\n\r\nRecommended media player is CCCP package with the Media Player Classic found at http://www.cccp-project.net/\r\n\r\nGeneral\r\nComplete name                  : Eurovision.Song.Contest.2016.SF2.EBU-FEED.reenc.1080i.AC3-icecube.mp4\r\nFormat                         : MPEG-4\r\nFormat profile                 : Base Media / Version 2\r\nCodec ID                       : mp42\r\nFile size                      : 5.61 GiB\r\nDuration                       : 2h 5mn\r\nOverall bit rate               : 6 414 Kbps\r\nEncoded date                   : UTC 2036-02-06 06:28:16\r\nTagged date                    : UTC 2036-02-06 06:28:16\r\nWriting application            : HandBrake 0.10.2 2015060900\r\n\r\nVideo\r\nID                             : 1\r\nFormat                         : AVC\r\nFormat/Info                    : Advanced Video Codec\r\nFormat profile                 :   \r\nFormat settings, CABAC         : Yes\r\nFormat settings, ReFrames      : 4 frames\r\nCodec ID                       : avc1\r\nCodec ID/Info                  : Advanced Video Coding\r\nDuration                       : 2h 5mn\r\nBit rate                       : 5 957 Kbps\r\nWidth                          : 1 280 pixels\r\nHeight                         : 1 080 pixels\r\nDisplay aspect ratio           : 16:9\r\nOriginal display aspect ratio  : 16:9\r\nFrame rate mode                : Variable\r\nFrame rate                     : 45.206 fps\r\nMinimum frame rate             : 25.000 fps\r\nMaximum frame rate             : 50.000 fps\r\nColor space                    : YUV\r\nChroma subsampling             : 4:2:0\r\nBit depth                      : 8 bits\r\nScan type                      : MBAFF\r\nScan order                     : Top Field First\r\nBits/(Pixel*Frame)             : 0.095\r\nStream size                    : 5.21 GiB (93%)\r\nWriting library                : x264 core 142 r2479 dd79a61\r\nEncoding settings              : cabac=1 / ref=5 / deblock=1:1:2 / analyse=0x3:0x3 / me=umh / subme=9 / psy=1 / psy_rd=1.00:0.20 / mixed_ref=1 / me_range=16 / chroma_me=1 / trellis=2 / 8x8dct=1 / cqm=0 / deadzone=21,11 / fast_pskip=1 / chroma_qp_offset=-3 / threads=12 / lookahead_threads=1 / sliced_threads=0 / nr=0 / decimate=1 / interlaced=tff / bluray_compat=0 / constrained_intra=0 / bframes=5 / b_pyramid=1 / b_adapt=2 / b_bias=0 / direct=1 / weightb=1 / open_gop=0 / weightp=0 / keyint=250 / keyint_min=25 / scenecut=40 / intra_refresh=0 / rc_lookahead=40 / rc=crf / mbtree=1 / crf=23.0 / qcomp=0.60 / qpmin=0 / qpmax=69 / qpstep=4 / ip_ratio=1.40 / aq=1:1.00\r\nEncoded date                   : UTC 2036-02-06 06:28:16\r\nTagged date                    : UTC 2036-02-06 06:28:16\r\nColor range                    : Limited\r\nColor primaries                : BT.709\r\nTransfer characteristics       : BT.709\r\nMatrix coefficients            : BT.709\r\n\r\nAudio\r\nID                             : 2\r\nFormat                         : AC-3\r\nFormat/Info                    : Audio Coding 3\r\nMode extension                 : CM (complete main)\r\nFormat settings, Endianness    : Big\r\nCodec ID                       : ac-3\r\nDuration                       : 2h 5mn\r\nBit rate mode                  : Constant\r\nBit rate                       : 448 Kbps\r\nChannel(s)                     : 6 channels\r\nChannel positions              : Front: L C R, Side: L R, LFE\r\nSampling rate                  : 48.0 KHz\r\nBit depth                      : 16 bits\r\nCompression mode               : Lossy\r\nStream size                    : 401 MiB (7%)\r\nTitle                          : Surround / Surround\r\nEncoded date                   : UTC 2036-02-06 06:28:16\r\nTagged date                    : UTC 2036-02-06 06:28:16","torrent":{"xt":"urn:btih:425a2978505db7f7f171cc9398e78a0c6570e035","amp;dn":"Eurovision.Song.Contest.2016.SF2.EBU-FEED.reenc.1080i.AC3-icecub","amp;tr":["udp%3A%2F%2Ftracker.leechers-paradise.org%3A6969","udp%3A%2F%2Fzer0day.ch%3A1337","udp%3A%2F%2Fopen.demonii.com%3A1337","udp%3A%2F%2Ftracker.coppersurfer.tk%3A6969","udp%3A%2F%2Fexodus.desync.com%3A6969"],"infoHash":"425a2978505db7f7f171cc9398e78a0c6570e035","infoHashBuffer":{"type":"Buffer","data":[66,90,41,120,80,93,183,247,241,113,204,147,152,231,138,12,101,112,224,53]},"announce":[],"urlList":[]}}